<?xml version="1.0" encoding="UTF-8" standalone="no"?>
<!-- Created with Inkscape (http://www.inkscape.org/) -->

<svg
   version="1.1"
   id="svg1"
   width="1024"
   height="1024"
   viewBox="0 0 1024 1024"
   sodipodi:docname="icon.svg"
   inkscape:version="1.4.4 (dcaf3e7d9e, 2026-05-05)"
   xmlns:inkscape="http://www.inkscape.org/namespaces/inkscape"
   xmlns:sodipodi="http://sodipodi.sourceforge.net/DTD/sodipodi-0.dtd"
   xmlns="http://www.w3.org/2000/svg"
   xmlns:svg="http://www.w3.org/2000/svg">
  <defs
     id="defs1" />
  <sodipodi:namedview
     id="namedview1"
     pagecolor="#ffffff"
     bordercolor="#000000"
     borderopacity="0.25"
     inkscape:showpageshadow="2"
     inkscape:pageopacity="0.0"
     inkscape:pagecheckerboard="0"
     inkscape:deskcolor="#d1d1d1"
     inkscape:zoom="0.45729167"
     inkscape:cx="933.75854"
     inkscape:cy="656.03645"
     inkscape:window-width="1920"
     inkscape:window-height="1131"
     inkscape:window-x="0"
     inkscape:window-y="0"
     inkscape:window-maximized="1"
     inkscape:current-layer="g1" />
  <g
     inkscape:groupmode="layer"
     inkscape:label="Image"
     id="g1">
    <g
       id="g24"
       transform="matrix(0.59343097,0,0,0.59343097,-142.81976,-59.611471)">
      <path
         style="fill:#5e54aa;fill-opacity:1"
         d="m 1528.8115,1058.7734 -2.8058,-2.4133 -0.2855,-190.83668 c -0.1571,-104.9602 -0.034,-192.2487 0.2742,-193.9746 0.3079,-1.7258 1.7353,-4.3133 3.172,-5.75 l 2.612,-2.612 h 30.2748 30.2747 l 2.5889,3.0767 2.5889,3.0767 -0.032,193.1733 c -0.025,150.27358 -0.3023,193.52568 -1.25,194.75998 -2.8115,3.6618 -5.0669,3.9133 -35.0967,3.9133 h -29.51 z"
         id="path18" />
      <path
         id="path17"
         style="fill:#5d56ab;fill-opacity:1"
         d="m 1423.5371,733.18712 -3.2656,2.918 -3.2656,2.918 v 157.9765 c 0,156.56938 0.018,157.99608 2,160.19928 1.1,1.2227 2.9,2.5927 4,3.0429 1.1,0.4503 20.0785,0.8478 42.1738,0.8828 l 40.1719,0.062 3.0859,-2.5976 3.0859,-2.5957 -0.2578,-158.48628 -0.2597,-158.4844 -3.2657,-2.918 -3.2656,-2.918 h -40.4687 z m 41.3145,26 c 20.3775,0 22.4907,0.1605 24,1.8282 1.4757,1.6306 1.6543,5.7416 1.6543,37.9296 0,31.4847 -0.2018,36.2995 -1.5723,37.67 -1.337,1.337 -4.9842,1.5722 -24.4434,1.5722 -22.5015,0 -22.8962,-0.0361 -24.4277,-2.2226 -1.3375,-1.9096 -1.5566,-7.1896 -1.5566,-37.5 0,-33.9442 0.076,-35.353 2,-37.2774 1.8807,-1.8807 3.334,-2 24.3457,-2 z" />
      <path
         style="fill:#5e57ac;fill-opacity:1"
         d="m 629.73465,1060.5175 c -0.69907,-0.2813 -1.93657,-1.7984 -2.75,-3.3714 -1.29017,-2.4949 -1.47896,-27.2927 -1.47896,-194.26048 0,-137.1653 0.31316,-192.2987 1.10518,-194.5707 0.60785,-1.7437 1.92827,-3.6109 2.93426,-4.1492 1.00599,-0.5384 9.68381,-0.9789 19.28403,-0.9789 15.69603,0 17.69286,0.1926 19.81575,1.9116 l 2.36078,1.9116 v 195.1767 195.17678 l -2.36078,1.9116 c -2.1343,1.7283 -4.05306,1.9041 -20,1.8328 -9.70157,-0.043 -18.21119,-0.3091 -18.91026,-0.5904 z"
         id="path15" />
      <path
         id="path14"
         style="fill:#5e57ac;fill-opacity:1"
         d="m 539.41406,715.18712 -2.45312,2.4551 -2.45508,2.4531 v 168.0918 168.08988 l 2.45508,2.4551 2.45312,2.455 h 33.0918 33.08984 l 2.45508,-2.455 2.45508,-2.4551 V 888.80822 721.33952 l -2.58984,-3.0762 -2.5879,-3.0762 h -32.95703 z m 33.0918,43 c 12.46001,0 15.99705,0.3097 17.77734,1.5567 2.21651,1.5521 2.22266,1.6465 2.22266,32.7988 0,22.967 -0.3171,31.5612 -1.19922,32.4434 -0.84046,0.8404 -6.36302,1.2011 -18.42969,1.2011 -14.32901,0 -17.49382,-0.2652 -18.80078,-1.5722 -1.3607,-1.3607 -1.57031,-5.7114 -1.57031,-32.4434 0,-30.7685 0.008,-30.8762 2.22266,-32.4277 1.78029,-1.247 5.31733,-1.5567 17.77734,-1.5567 z" />
      <g
         id="g23"
         transform="translate(0,-502.96128)">
        <path
           style="fill:#5e57ac;fill-opacity:1"
           d="m 442.75569,1327.4858 c -1.63841,-0.6611 -1.76011,-29.1241 -0.13973,-32.6804 0.61065,-1.3402 2.20683,-2.9364 3.54705,-3.5471 3.13134,-1.4267 65.65813,-1.547 68.30324,-0.1313 1.00599,0.5383 2.32641,2.4055 2.93426,4.1492 1.54098,4.4204 1.46406,30.113 -0.0948,31.6719 -0.89196,0.8919 -10.454,1.1797 -37.25,1.121 -19.8275,-0.043 -36.6125,-0.3059 -37.3,-0.5833 z"
           id="path21" />
        <path
           style="fill:#5e57ac;fill-opacity:1"
           d="m 443.25569,1514.068 c -1.64488,-0.9581 -1.75,-6.11 -1.75,-85.7696 0,-64.5836 0.28555,-85.0359 1.2,-85.9503 0.88921,-0.8892 10.59218,-1.2 37.46482,-1.2 34.8305,0 36.30576,0.076 37.3,1.9342 0.69003,1.2894 1.03518,29.9714 1.03518,86.0248 v 84.0905 l -2.5651,0.9753 c -3.5086,1.3339 -70.38022,1.2375 -72.6849,-0.1049 z"
           id="path19" />
        <path
           style="fill:#5e57ac;fill-opacity:1"
           d="m 443.50569,1562.1481 c -1.81518,-1.8152 -2,-3.3333 -2,-16.4286 0,-11.7835 0.28807,-14.7166 1.57143,-16 1.36993,-1.3699 6.15281,-1.5714 37.3,-1.5714 26.45555,0 36.04002,0.3114 36.92857,1.2 0.82769,0.8277 1.2,5.8989 1.2,16.345 0,13.4023 -0.21044,15.3355 -1.82874,16.8 -1.62764,1.473 -5.64135,1.655 -36.5,1.655 -33.33793,0 -34.74817,-0.077 -36.67126,-2 z"
           id="path12" />
      </g>
      <path
         style="fill:#5e54aa;fill-opacity:1"
         d="m 1698.3402,1060.6591 c -2.9035,-1.5769 -3.2817,-2.545 -9.3638,-23.9723 -2.0296,-7.15 -7.8807,-26.95 -13.0026,-43.99998 -5.1219,-17.05 -13.1985,-44.5 -17.948,-61 -4.7494,-16.5 -11.4948,-39.45 -14.9897,-51 -3.4949,-11.55 -11.8134,-40.125 -18.4855,-63.5 -6.6722,-23.375 -13.6868,-47.5129 -15.5881,-53.6398 -4.2042,-13.5484 -4.2806,-15.6903 -0.6874,-19.2835 2.8444,-2.8444 8.2949,-4.7594 44.5558,-15.6548 17.2038,-5.1693 19.3232,-5.2086 22.7715,-0.4219 0.9906,1.375 5.6183,15.775 10.2838,32 29.1658,101.429 46.1346,159.8239 63.6384,219 17.9143,60.56378 17.0925,57.38198 15.7883,61.12318 -1.2987,3.7256 -3.4731,4.8095 -18.8072,9.3754 -6.875,2.047 -18.7694,5.6973 -26.4321,8.1117 -15.0373,4.7379 -17.6466,5.0815 -21.7334,2.862 z"
         id="path11" />
      <g
         id="g22"
         style="fill:#3a3070;fill-opacity:1"
         transform="translate(0,-502.96128)">
        <path
           style="fill:#3a3070;fill-opacity:1"
           d="m 685.59593,1258.3981 c -2.67148,-10.1516 -6.09024,-26.4248 -6.09024,-28.9892 0,-3.7922 3.05099,-6.9282 8.05009,-8.2743 15.52032,-4.1792 60.76827,-13.6028 62.41897,-12.9997 1.08298,0.3957 2.74711,1.798 3.69805,3.1163 2.38204,3.3022 8.47925,32.6505 7.075,34.0548 -0.58044,0.5804 -7.73486,2.5918 -15.89872,4.4698 -27.76452,6.3868 -55.216,12.3723 -56.74342,12.3723 -0.91767,0 -1.91507,-1.4903 -2.50973,-3.75 z"
           id="path22" />
        <path
           style="fill:#3a3070;fill-opacity:1"
           d="m 739.5218,1510.8981 c -0.99211,-2.3722 -3.2772,-12.6448 -12.95742,-58.25 -3.26883,-15.4 -10.7188,-50.05 -16.55549,-77 -18.31447,-84.5641 -20.54512,-95.8559 -19.20244,-97.2051 1.0466,-1.0517 40.44318,-10.7538 64.56927,-15.9013 8.0384,-1.7151 8.42184,-1.715 9.67768,0 0.71921,0.9836 1.61599,3.6593 1.99283,5.9461 0.88674,5.3809 15.28097,71.8567 36.41179,168.1578 5.55145,25.3 10.59618,48.3238 11.21053,51.1641 0.61434,2.8403 0.87569,5.793 0.58076,6.5616 -0.32167,0.8383 -4.67878,2.3108 -10.88992,3.6803 -5.69453,1.2557 -22.22595,5.1655 -36.73648,8.6885 -14.51053,3.523 -26.55768,6.4055 -26.77144,6.4055 -0.21376,0 -0.81211,-1.0125 -1.32967,-2.25 z"
           id="path20" />
        <path
           style="fill:#3a3070;fill-opacity:1"
           d="m 754.81399,1565.1139 c -1.20544,-0.472 -2.84674,-1.8949 -3.64733,-3.162 -1.25168,-1.981 -7.66097,-29.1512 -7.66097,-32.4763 0,-0.6448 1.4625,-1.6425 3.25,-2.2171 6.4973,-2.0885 72.05606,-17.1377 72.54163,-16.6521 1.13191,1.1319 6.96801,32.3482 6.50274,34.7821 -0.83614,4.374 -3.65518,5.8757 -16.50837,8.7935 -6.7573,1.534 -20.386,4.6401 -30.286,6.9024 -23.02156,5.2609 -21.63616,5.0301 -24.1917,4.0295 z"
           id="path10" />
      </g>
      <path
         style="fill:#392f78;fill-opacity:1"
         d="m 1201.0057,1414.5529 c -6.3776,-1.583 -9.2821,-3.0458 -13.1783,-6.6372 -4.9908,-4.6004 -6.8181,-9.7134 -7.7652,-21.7289 -1.8203,-23.0912 -8.5384,-99.7452 -15.0744,-172 -4.1045,-45.375 -9.0572,-101.4 -11.0059,-124.5 -1.9488,-23.1 -5.319,-61.8 -7.4894,-86 -2.1703,-24.19998 -4.1868,-46.92498 -4.481,-50.49998 -0.2942,-3.575 -2.5399,-28.775 -4.9905,-56 -2.4506,-27.225 -5.2035,-59.175 -6.1175,-71 -0.914,-11.825 -2.0525,-21.9275 -2.5298,-22.45 -0.5062,-0.5541 -0.868,0.5144 -0.868,2.5634 0,5.9111 -8.4826,93.5548 -23.6045,243.88658 -4.675,46.475 -10.7293,107.675 -13.4542,136 -2.7248,28.325 -6.0502,62.8143 -7.3897,76.643 -1.3394,13.8286 -3.0722,26.6672 -3.8506,28.5302 -1.6751,4.009 -6.6935,9.2544 -10.9693,11.4655 -7.7042,3.9841 -19.8569,2.4926 -26.7157,-3.2787 -7.2611,-6.1098 -5.6128,2.5982 -26.0002,-137.36 -4.3664,-29.975 -11.3493,-77.45 -15.5176,-105.5 -4.16821,-28.05 -8.07671,-54.6 -8.68541,-58.99998 -0.6088,-4.4 -1.3822,-8.5377 -1.7187,-9.1948 -0.3365,-0.6571 -3.2474,14.19288 -6.4686,32.99998 -3.2213,18.8072 -8.70321,50.1698 -12.18205,69.6948 -3.47884,19.525 -8.61975,49.225 -11.42425,66 -2.80451,16.775 -5.80213,32.4355 -6.6614,34.8012 -5.29472,14.5769 -25.09352,18.7731 -36.88801,7.8181 -3.55072,-3.298 -7.84892,-10.5493 -21.55787,-36.3693 -16.88561,-31.8031 -17.16649,-32.2504 -20.26742,-32.2798 -1.72947,-0.016 -116.87901,0 -255.88786,0.029 -270.8748,0.063 -257.27598,0.3016 -259.13546,-4.5441 -0.34165,-0.8902 -0.62118,-10.3773 -0.62118,-21.0823 0,-19.3318 0.0166,-19.4803 2.45455,-21.9183 l 2.45454,-2.4545 H 630.26389 897.113 l 5.08329,2.5331 c 5.55853,2.7699 8.12528,5.9671 13.62149,16.9669 4.04456,8.0946 3.53257,8.8947 6.71923,-10.5 1.1296,-6.875 5.16667,-30.05 8.97126,-51.5 3.80459,-21.45 10.10227,-57.22498 13.99484,-79.49998 9.42302,-53.9227 19.46092,-110.3661 22.58569,-127 2.92635,-15.5778 4.90576,-19.4397 12.1445,-23.6948 4.00129,-2.352 5.90339,-2.8052 11.77239,-2.8052 5.869,0 7.7711,0.4532 11.77241,2.8052 8.5538,5.0281 9.5309,7.5212 13.2994,33.9354 1.8251,12.7926 7.189,50.4844 11.9197,83.7594 4.7308,33.275 11.2526,78.27498 14.493,99.99998 3.2403,21.725 6.4242,43.2328 7.0752,47.795 0.6509,4.5623 1.3407,8.138 1.5327,7.9459 0.192,-0.192 1.2806,-9.7748 2.4192,-21.295 1.1385,-11.5202 3.8389,-37.1459 6.0008,-56.9459 5.5014,-50.38398 24.7428,-243.23568 33.9727,-340.49998 2.2182,-23.375 5.3751,-56 7.0154,-72.5 1.6404,-16.5 3.6451,-37.0631 4.4549,-45.6958 1.5549,-16.5754 2.9391,-21.5009 7.3476,-26.1458 8.9223,-9.4008 25.5215,-9.6489 33.83,-0.5058 4.7088,5.1819 5.5837,8.6663 7.485,29.8099 2.648,29.4474 11.2963,130.4764 15.9253,186.0375 2.1765,26.125 5.9674,70.9 8.4242,99.5 2.4567,28.6 6.0741,70.9 8.0385,94 1.9645,23.1 5.5969,64.275 8.0719,91.49998 2.4751,27.225 6.0332,66.375 7.9071,87 6.3105,69.4594 6.9175,75.2684 7.6672,73.3698 0.8663,-2.194 2.8412,-14.1683 10.9465,-66.3698 5.8351,-37.5803 8.5147,-54.9951 23.0041,-149.49998 9.6935,-63.2246 10.249,-66.1169 13.6196,-70.9126 8.2093,-11.6804 27.2852,-12.3154 37.0164,-1.2321 3.6437,4.1499 4.6722,7.1306 6.7787,19.6447 3.1766,18.872 19.6245,108.95798 23.4614,128.49998 2.1598,11 6.6954,34.625 10.0791,52.5 3.3837,17.875 6.3035,32.6611 6.4885,32.8581 0.185,0.1969 0.984,-1.1531 1.7755,-3 0.7916,-1.847 4.6379,-9.9587 8.5474,-18.0261 7.6232,-15.7307 10.7667,-19.5076 18.0529,-21.6906 2.8075,-0.8411 65.3918,-1.1414 237.888,-1.1414 h 234.0782 l 2.8057,2.4112 2.8058,2.4111 0.3147,16.9919 c 0.3446,18.613 -0.5518,24.3909 -4.0987,26.4188 -1.7633,1.0082 -48.0621,1.3691 -226.65,1.767 l -224.434,0.5 -5.6461,12.5 c -3.1053,6.875 -11.8869,26.45 -19.5147,43.5 -11.9766,26.7708 -14.4898,31.6336 -18.4217,35.6446 -7.4764,7.6268 -19.0312,8.9864 -28.619,3.3675 -8.0592,-4.723 -8.9375,-7.0105 -15.0365,-39.162 -8.8304,-46.5499 -25.3767,-129.6895 -26.2175,-131.7333 -0.5043,-1.226 -1.7125,4.1833 -3.4621,15.5 -1.4781,9.5608 -5.4078,34.9332 -8.7327,56.3832 -3.3249,21.45 -8.4878,55.65 -11.4731,76 -2.9853,20.35 -6.3333,43.075 -7.44,50.5 -1.1067,7.425 -6.0679,42.3 -11.025,77.5 -4.957,35.2 -9.457,65.575 -9.9999,67.5 -1.3138,4.6582 -6.3563,10.6086 -10.9954,12.9753 -3.9074,1.9935 -12.0839,3.2507 -15.5483,2.3908 z"
         id="path9" />
    </g>
  </g>
</svg>
